<svg width="169" height="42" viewBox="0 0 169 42" fill="none" xmlns="http://www.w3.org/2000/svg">
<path d="M35.6312 25.543H36.8423V14.8301H35.6312V10.9259H46.7488C48.8319 10.9259 50.4224 11.3465 51.5205 12.1876C52.6185 13.0288 53.1675 14.3937 53.1675 16.2823C53.1675 17.3457 52.9495 18.2662 52.5135 19.0439C52.0775 19.8216 51.4559 20.3612 50.6485 20.6627L50.6727 20.9008C52.2229 21.1388 52.998 22.0752 52.998 23.7099V25.543H54.1364V29.4473H46.4582V23.8528C46.4582 23.2338 46.3613 22.7656 46.1675 22.4482C45.9899 22.1308 45.6992 21.9165 45.2956 21.8054C44.908 21.6943 44.3509 21.6388 43.6243 21.6388V25.543H45.2229V29.4473H35.6312V25.543ZM44.9322 18.7344C45.4005 18.7344 45.7477 18.6154 45.9738 18.3773C46.216 18.1234 46.3371 17.7345 46.3371 17.2108V16.3538C46.3371 15.83 46.216 15.4491 45.9738 15.211C45.7477 14.9571 45.4005 14.8301 44.9322 14.8301H43.6243V18.7344H44.9322Z" fill="white"/>
<path d="M56.4452 14.9016V10.9259H61.3863V14.9016H56.4452ZM55.2825 29.4473V25.543H56.3483V20.1152H55.2825V16.2109H61.9192V25.543H62.9849V29.4473H55.2825Z" fill="white"/>
<path d="M64.0815 25.543H65.1473V20.1152H64.0815V16.2109H65.1957C65.1957 14.2747 65.672 12.8542 66.6248 11.9496C67.5936 11.0449 68.9985 10.5926 70.8393 10.5926C71.7274 10.5926 72.5186 10.6561 73.213 10.783C73.9235 10.91 74.4402 11.0528 74.7631 11.2116V14.9492C73.9073 14.8698 73.1161 14.8301 72.3894 14.8301C71.7597 14.8301 71.3237 14.9333 71.0815 15.1396C70.8393 15.3459 70.7182 15.703 70.7182 16.2109H72.6074V20.1152H70.7182V25.543H72.6074V29.4473H64.0815V25.543Z" fill="white"/>
<path d="M80.149 29.7806C78.4373 29.7806 77.1455 29.3759 76.2736 28.5665C75.4178 27.7412 74.9898 26.3604 74.9898 24.4241V20.1152H73.9241V16.2109C74.5377 16.2109 74.9979 16.0601 75.3047 15.7586C75.6115 15.4412 75.7649 15.0127 75.7649 14.473V13.4018H80.8999V16.2109H84.1697V20.1152H80.8999V24.0194C80.8999 24.5432 81.0129 24.932 81.239 25.1859C81.4812 25.424 81.8364 25.543 82.3047 25.543C82.9183 25.543 83.5884 25.4716 84.3151 25.3288V29.0664C83.8629 29.241 83.2493 29.3997 82.4742 29.5425C81.7153 29.7012 80.9402 29.7806 80.149 29.7806Z" fill="white"/>
<path d="M109.921 25.543V29.4473H102.267V25.543H103.285V21.6388C103.285 21.115 103.172 20.7341 102.945 20.4961C102.719 20.2421 102.38 20.1152 101.928 20.1152C100.959 20.1152 100.475 20.623 100.475 21.6388V25.543H101.492V29.4473H93.8867V25.543H94.904V21.6388C94.904 21.115 94.7909 20.7341 94.5649 20.4961C94.3388 20.2421 93.9997 20.1152 93.5476 20.1152C92.5787 20.1152 92.0943 20.623 92.0943 21.6388V25.543H93.1116V29.4473H85.4576V25.543H86.5234V20.1152H85.4576V16.2109H92.0943V18.0678C93.2569 16.6077 94.7102 15.8776 96.4541 15.8776C97.4391 15.8776 98.2385 16.1078 98.8521 16.568C99.4818 17.0124 99.9259 17.6472 100.184 18.4725C100.766 17.6472 101.428 17.0124 102.17 16.568C102.929 16.1236 103.817 15.9014 104.835 15.9014C106.175 15.9014 107.176 16.3141 107.838 17.1394C108.516 17.9647 108.855 19.0994 108.855 20.5437V25.543H109.921Z" fill="white"/>
<path d="M124.817 25.543V29.4473H118.423V27.8285C118.067 28.3363 117.567 28.7887 116.921 29.1854C116.291 29.5822 115.516 29.7806 114.596 29.7806C113.385 29.7806 112.432 29.4632 111.738 28.8283C111.043 28.1935 110.696 27.2968 110.696 26.1382C110.696 23.1386 113.288 21.5991 118.471 21.5198C118.423 20.9801 118.213 20.6151 117.841 20.4247C117.47 20.2183 116.84 20.1152 115.952 20.1152C115.226 20.1152 114.442 20.1945 113.603 20.3532C112.779 20.4961 112.02 20.6945 111.326 20.9484V16.568C112.182 16.3617 113.11 16.195 114.111 16.0681C115.112 15.9411 116.089 15.8776 117.042 15.8776C119.448 15.8776 121.168 16.3061 122.201 17.1632C123.235 18.0202 123.751 19.3454 123.751 21.1388V25.543H124.817ZM118.423 23.8766C117.696 23.8766 117.131 23.9718 116.727 24.1623C116.34 24.3527 116.146 24.6701 116.146 25.1145C116.146 25.3843 116.227 25.6065 116.388 25.7811C116.566 25.9398 116.808 26.0192 117.115 26.0192C117.535 26.0192 117.858 25.8446 118.084 25.4954C118.31 25.1463 118.423 24.6543 118.423 24.0194V23.8766Z" fill="white"/>
<path d="M140.203 25.543H141.245V29.4473H135.311L132.816 24.8765H132.235V29.4473H125.598V25.543H126.664V14.8301H125.598V10.9259H132.235V20.5913H132.816L135.819 16.2109H140.93V20.1152H139.937L137.878 22.3768L140.203 25.543Z" fill="white"/>
<path d="M149.232 29.7806C146.939 29.7806 145.146 29.1934 143.854 28.0189C142.563 26.8286 141.917 25.0987 141.917 22.8291C141.917 20.5596 142.563 18.8376 143.854 17.6631C145.146 16.4728 146.939 15.8776 149.232 15.8776C151.508 15.8776 153.147 16.4648 154.149 17.6393C155.166 18.7979 155.674 20.2421 155.674 21.9721V23.6861H147.827V23.829C147.827 24.4162 148.004 24.8527 148.36 25.1383C148.715 25.4081 149.304 25.543 150.128 25.543C151.113 25.543 152.049 25.4716 152.937 25.3288C153.826 25.1859 154.601 25.0034 155.263 24.7812V28.5903C154.698 28.8918 153.866 29.1696 152.768 29.4235C151.686 29.6616 150.507 29.7806 149.232 29.7806ZM150.636 21.0674V20.7818C150.636 20.2421 150.515 19.8533 150.273 19.6152C150.047 19.3772 149.7 19.2581 149.232 19.2581C148.763 19.2581 148.408 19.3851 148.166 19.639C147.94 19.8771 147.827 20.258 147.827 20.7818V21.0674H150.636Z" fill="white"/>
<path d="M166.738 15.8776C167.061 15.8776 167.367 15.9094 167.658 15.9728C167.949 16.0363 168.191 16.1157 168.385 16.2109V20.7579C167.723 20.4881 167.012 20.3532 166.253 20.3532C165.236 20.3532 164.453 20.6151 163.904 21.1388C163.355 21.6626 163.08 22.4403 163.08 23.4719V25.543H165.26V29.4473H156.444V25.543H157.509V20.1152H156.444V16.2109H163.08V17.9488C163.532 17.2822 164.049 16.7743 164.63 16.4252C165.212 16.0601 165.914 15.8776 166.738 15.8776Z" fill="white"/>
<path d="M14.8947 21.0709V2.42999L28.3875 21.0709H14.8947Z" fill="#4700D3"/>
<path d="M14.8947 21.071V39.7119L28.3875 21.071H14.8947Z" fill="#3B006E"/>
<path d="M14.9624 21.0709V2.42999L1.46957 21.0709H14.9624Z" fill="#6C00F5"/>
<path d="M14.9624 21.071V39.7119L1.46957 21.071H14.9624Z" fill="#2B004F"/>
<path d="M14.9623 13.2327L20.5899 21.071L14.9623 28.9092L9.33459 21.071L14.9623 13.2327Z" fill="#5907FE"/>
</svg>
