<svg width="20" height="20" viewBox="0 0 20 20" fill="none" xmlns="http://www.w3.org/2000/svg">
<path fill-rule="evenodd" clip-rule="evenodd" d="M15.319 13.9075C17.7628 10.769 17.542 6.22833 14.6569 3.34315C11.5327 0.218951 6.46734 0.218951 3.34315 3.34315C0.218951 6.46734 0.218951 11.5327 3.34315 14.6569C6.22833 17.542 10.769 17.7628 13.9075 15.319C13.921 15.3343 13.9351 15.3493 13.9497 15.364L18.1924 19.6066C18.5829 19.9971 19.2161 19.9971 19.6066 19.6066C19.9971 19.2161 19.9971 18.5829 19.6066 18.1924L15.364 13.9497C15.3493 13.9351 15.3343 13.921 15.319 13.9075ZM13.2426 4.75736C15.5858 7.1005 15.5858 10.8995 13.2426 13.2426C10.8995 15.5858 7.1005 15.5858 4.75736 13.2426C2.41421 10.8995 2.41421 7.1005 4.75736 4.75736C7.1005 2.41421 10.8995 2.41421 13.2426 4.75736Z" fill="#AAAAAA"/>
</svg>
